<?xml version="1.0" standalone="no"?>
<!DOCTYPE svg PUBLIC "-//W3C//DTD SVG 20010904//EN"
 "http://www.w3.org/TR/2001/REC-SVG-20010904/DTD/svg10.dtd">
<svg version="1.0" xmlns="http://www.w3.org/2000/svg"
 width="580.000000pt" height="387.000000pt" viewBox="0 0 580.000000 387.000000"
 preserveAspectRatio="xMidYMid meet">

<g transform="translate(0.000000,387.000000) scale(0.100000,-0.100000)"
fill="#000000" stroke="none">
<path d="M2806 3515 c-29 -29 -19 -66 40 -145 30 -41 64 -90 76 -107 24 -39
34 -41 42 -8 3 13 31 60 61 104 60 88 72 119 55 150 -15 30 -74 29 -103 -2
-12 -13 -27 -32 -33 -42 -10 -17 -13 -16 -45 17 -41 44 -71 55 -93 33z m248
-1 c30 -12 17 -57 -45 -148 -34 -50 -64 -92 -68 -93 -3 -1 -34 39 -69 88 -47
66 -62 97 -60 117 6 51 50 33 104 -42 l21 -30 18 37 c16 35 58 77 76 77 4 0
14 -3 23 -6z"/>
<path d="M2034 3332 c-17 -15 -56 -45 -87 -67 -61 -43 -87 -88 -87 -148 0 -25
-9 -42 -36 -68 l-37 -34 7 68 c7 67 7 67 -19 67 -32 0 -43 -25 -21 -49 10 -11
16 -35 16 -65 0 -41 -8 -60 -47 -121 -27 -39 -53 -80 -60 -91 -7 -12 -6 -1 3
30 18 64 18 110 -2 163 -17 45 -39 56 -48 25 -3 -10 -22 -42 -41 -72 -52 -81
-48 -147 13 -212 l25 -28 -37 -112 c-21 -62 -40 -120 -43 -128 -3 -11 -9 -7
-19 13 -13 24 -13 33 2 81 9 29 14 64 11 77 -8 31 -64 99 -82 99 -17 0 -30
-76 -21 -130 5 -33 4 -38 -12 -33 -20 5 -72 -12 -72 -25 0 -12 104 -62 128
-62 14 0 27 -11 38 -32 14 -28 15 -42 5 -113 -6 -44 -12 -104 -13 -133 -2 -56
-12 -76 -23 -42 -9 30 -53 79 -86 96 l-29 15 0 -71 c0 -39 6 -85 14 -103 16
-39 70 -87 97 -87 23 0 25 -6 34 -80 l6 -55 -28 27 c-28 27 -93 49 -93 32 1
-5 13 -34 28 -64 22 -43 38 -59 75 -79 37 -19 47 -29 47 -49 l0 -26 -27 26
c-61 56 -138 75 -138 33 0 -31 60 -65 116 -65 52 0 70 -15 84 -72 l7 -28 -36
15 c-41 17 -86 20 -86 4 0 -36 119 -139 162 -139 11 0 27 -18 43 -50 28 -54
25 -57 -38 -39 -22 6 -41 8 -44 5 -10 -10 42 -88 73 -106 18 -11 49 -20 72
-20 22 0 43 -4 46 -9 9 -14 -47 -23 -87 -16 -29 6 -37 3 -46 -14 -9 -15 -9
-27 -1 -42 14 -26 52 -22 65 8 6 15 22 24 47 28 38 7 40 5 106 -65 78 -84 80
-89 50 -83 -29 5 -171 -39 -167 -52 2 -5 18 -16 36 -22 18 -7 50 -20 71 -28
49 -19 113 -19 154 1 l33 15 87 -58 c48 -31 85 -59 83 -61 -2 -2 -20 2 -40 9
-60 22 -100 -25 -56 -65 25 -22 67 -15 76 13 11 34 49 33 132 -3 43 -19 89
-37 103 -42 23 -7 21 -8 -19 -16 -51 -9 -131 -75 -108 -90 39 -25 130 2 168
51 l25 32 72 -18 c81 -19 83 -35 5 -55 -56 -14 -103 -52 -103 -83 0 -56 72
-30 124 44 32 45 76 82 76 63 0 -6 -14 -26 -30 -44 -17 -18 -33 -43 -36 -55
-8 -31 4 -63 25 -63 23 0 41 40 41 94 0 67 14 74 138 61 99 -10 102 -11 72
-23 -36 -16 -84 -82 -70 -96 14 -14 121 11 146 35 12 11 25 36 28 55 4 20 13
34 21 34 27 0 65 -23 65 -40 0 -23 26 -44 45 -36 19 7 20 45 0 51 -51 16 -51
16 -35 24 8 5 35 11 61 15 36 5 56 2 101 -18 74 -33 172 -58 212 -54 27 3 31
7 31 33 0 25 -7 33 -38 48 -20 10 -58 22 -84 25 l-46 7 54 19 c30 10 75 30
101 43 46 23 103 30 123 15 6 -4 23 -26 38 -49 33 -48 55 -60 75 -39 20 19 7
54 -30 76 -40 24 -22 32 56 24 80 -8 119 10 114 54 -3 25 -7 27 -46 26 -31 -1
-55 -9 -86 -31 -40 -29 -146 -55 -146 -36 0 4 24 22 52 38 28 17 82 54 120 82
79 61 145 83 184 63 21 -12 27 -11 41 3 13 13 14 19 3 31 -16 20 -37 20 -48 0
-6 -10 -19 -14 -39 -12 l-31 3 61 65 61 64 87 6 88 5 51 50 c62 61 65 79 10
70 -87 -15 -150 -21 -150 -16 0 19 70 108 94 120 17 8 67 14 117 16 92 2 119
12 119 46 0 46 -65 45 -130 -1 -31 -22 -120 -53 -120 -41 0 29 86 95 125 96
15 0 20 7 20 25 0 32 -36 35 -49 4 -9 -21 -44 -49 -52 -42 -2 2 8 32 22 67 17
41 39 74 62 94 92 78 122 114 122 145 0 31 -18 46 -45 36 -22 -9 -65 -86 -65
-116 0 -14 -10 -33 -22 -44 -19 -17 -21 -17 -15 -1 6 16 24 107 44 216 7 40
12 45 47 58 50 17 63 28 87 76 23 44 30 160 11 179 -8 8 -25 -4 -64 -47 -29
-32 -54 -62 -56 -66 -9 -22 -22 -6 -22 26 0 52 25 93 68 110 47 20 81 52 98
92 15 35 19 173 5 173 -4 0 -35 -29 -68 -65 -62 -67 -83 -113 -83 -178 0 -41
-17 -59 -24 -25 -11 53 -39 195 -44 221 -3 21 4 36 33 68 20 23 43 56 51 75
24 56 16 234 -10 234 -28 -1 -105 -135 -115 -199 l-7 -46 -27 60 c-40 85 -44
132 -18 183 39 77 22 243 -23 226 -37 -14 -47 -110 -20 -205 27 -95 11 -103
-43 -23 -25 38 -63 90 -85 116 l-39 47 42 41 c39 38 41 44 37 85 -6 47 -44
119 -59 109 -5 -3 -9 -16 -9 -30 0 -14 -7 -39 -16 -55 l-15 -31 -29 45 c-27
43 -120 117 -147 117 -14 0 -10 -80 8 -151 11 -43 74 -105 116 -115 30 -7 73
-43 105 -86 l19 -28 -26 0 c-17 0 -36 11 -53 30 -38 43 -92 36 -92 -10 0 -36
68 -67 85 -40 9 14 39 12 83 -5 31 -13 47 -31 85 -93 50 -84 111 -211 123
-256 l7 -28 -41 27 c-22 14 -46 40 -52 56 -17 41 -87 99 -120 99 -55 0 -67
-50 -22 -92 38 -36 65 -48 109 -48 27 0 50 -10 78 -32 l40 -30 -49 6 c-27 3
-57 13 -66 21 -29 26 -73 29 -100 6 l-25 -21 25 -21 c18 -15 32 -19 55 -15 84
16 104 17 142 7 48 -13 54 -26 78 -162 24 -136 24 -136 -49 -63 -35 35 -72 64
-81 64 -15 0 -16 -8 -10 -62 11 -100 27 -126 123 -203 27 -23 32 -33 32 -68 0
-45 -26 -204 -39 -239 -13 -35 -44 75 -36 128 9 61 -10 96 -49 92 -27 -3 -31
-7 -34 -37 -4 -43 12 -83 48 -114 20 -18 32 -42 40 -82 10 -50 9 -62 -11 -123
l-23 -67 -7 47 c-9 58 -45 120 -67 116 -20 -4 -51 -96 -51 -153 -1 -24 9 -60
26 -92 l26 -53 -19 -35 c-39 -73 -210 -282 -221 -271 -3 3 11 37 31 75 38 73
43 107 25 160 -14 39 -24 39 -50 -1 -17 -28 -20 -44 -15 -106 9 -109 -10 -155
-83 -215 -32 -26 -61 -47 -64 -47 -3 0 3 19 13 43 21 45 26 123 10 147 -9 13
-16 9 -43 -21 -17 -19 -49 -48 -70 -63 -50 -37 -77 -92 -77 -159 l0 -55 -49
-21 c-27 -11 -52 -21 -55 -21 -14 0 -4 22 25 54 33 38 35 62 7 80 -36 22 -76
-35 -48 -69 12 -15 -6 -61 -32 -82 -15 -13 -188 -63 -215 -63 -17 1 -17 2 2
16 11 8 36 19 56 24 34 9 109 71 109 90 0 24 -15 40 -37 40 -38 0 -81 -36
-108 -91 -15 -29 -37 -55 -55 -64 -51 -27 -54 -15 -9 41 52 66 62 124 20 124
-33 0 -56 -38 -57 -96 -2 -63 -24 -104 -58 -104 -13 0 -39 -3 -57 -7 -33 -6
-33 -5 -18 13 29 33 30 57 5 98 l-23 39 -18 -38 -18 -37 -18 33 c-18 36 -57
76 -101 104 -26 16 -28 16 -35 -1 -3 -9 -1 -46 5 -82 8 -47 18 -72 38 -93 l28
-29 -36 0 c-23 0 -49 10 -76 29 -49 36 -57 48 -57 86 0 38 -37 48 -55 15 -12
-23 1 -50 24 -50 7 0 27 -16 46 -35 36 -37 30 -42 -31 -25 -53 15 -89 66 -89
127 0 63 -18 98 -50 98 -22 0 -25 -5 -28 -37 -3 -30 3 -44 30 -75 19 -21 42
-50 51 -65 22 -35 13 -36 -79 -4 l-69 23 3 71 c3 68 2 71 -31 109 -19 21 -49
46 -66 56 -28 16 -32 17 -37 2 -9 -23 5 -104 26 -153 11 -23 15 -42 10 -42
-15 0 -73 74 -93 119 -17 39 -18 49 -7 80 12 32 11 36 -10 53 -23 19 -56 11
-66 -17 -7 -18 13 -55 31 -55 8 0 17 -12 21 -27 3 -16 18 -48 32 -72 l25 -45
-49 29 c-63 37 -158 108 -211 158 l-42 40 25 49 c17 34 23 58 19 77 -7 32 -41
91 -53 91 -12 0 -42 -95 -42 -134 l-1 -31 -28 34 -28 34 23 35 c26 37 31 92
14 136 -21 55 -46 21 -66 -87 l-6 -38 -34 50 c-43 64 -45 110 -8 145 21 19 25
30 20 50 -5 21 -12 26 -36 26 -34 0 -49 -30 -30 -65 8 -16 9 -28 2 -41 -8 -15
-13 -12 -32 26 -28 55 -22 102 19 144 60 62 72 116 26 116 -31 0 -54 -39 -65
-107 -5 -31 -12 -58 -14 -60 -5 -6 -25 39 -45 100 l-13 38 56 59 c31 32 60 70
66 85 15 41 13 155 -3 155 -17 0 -89 -85 -121 -141 -22 -38 -24 -39 -29 -17
-17 66 -26 208 -16 235 14 37 48 73 70 73 22 0 42 24 37 47 -2 13 -12 18 -33
18 -24 0 -31 -5 -35 -25 -6 -29 -37 -76 -45 -68 -3 3 -2 31 1 63 7 56 8 57 52
76 56 24 90 50 125 96 33 44 34 53 5 53 -42 0 -97 -21 -129 -48 l-32 -27 6 47
c7 52 23 84 47 95 8 3 57 9 109 13 86 5 95 8 117 33 13 16 24 39 24 53 0 22
-3 24 -32 20 -18 -3 -55 -8 -82 -11 -40 -6 -56 -14 -91 -51 -24 -24 -48 -44
-55 -44 -13 0 -10 13 32 122 l29 77 63 -6 c77 -7 127 13 162 66 25 38 42 101
28 101 -5 0 -52 -16 -104 -35 -52 -19 -95 -33 -96 -32 -5 4 84 130 125 178
l42 49 73 -6 c56 -5 80 -3 107 10 34 16 79 70 79 95 0 9 -8 11 -22 8 -13 -4
-42 -9 -65 -13 l-43 -7 45 45 c43 43 45 48 45 101 0 31 -3 58 -8 61 -4 2 -21
-8 -38 -22z m26 -47 c0 -53 -28 -88 -105 -131 l-50 -28 48 52 c65 70 59 76
-10 11 -48 -45 -58 -51 -61 -35 -5 26 26 65 83 103 27 18 58 42 69 53 11 11
22 20 23 20 2 0 3 -20 3 -45z m1762 -13 c45 -41 68 -80 68 -118 0 -24 -2 -23
-42 24 -55 66 -62 59 -9 -8 23 -29 41 -56 41 -61 0 -16 -26 -10 -61 14 -42 28
-65 75 -73 150 -6 56 -6 58 15 47 11 -7 39 -28 61 -48z m168 -81 c0 -22 -8
-43 -22 -58 -27 -29 -42 -30 -28 -2 7 11 9 23 6 27 -3 3 -6 1 -6 -4 0 -6 -7
-19 -16 -30 -15 -18 -15 -18 -10 11 2 17 15 52 27 79 20 46 23 48 35 31 8 -10
14 -35 14 -54z m-1900 -60 c-25 -47 -110 -83 -146 -63 -13 7 -9 11 19 16 20 4
39 11 42 16 3 4 -11 4 -30 -1 -20 -6 -44 -8 -53 -6 -23 5 47 37 85 38 15 1 39
5 53 9 39 12 41 11 30 -9z m-309 -14 c-13 -13 -26 -3 -16 12 3 6 11 8 17 5 6
-4 6 -10 -1 -17z m2364 -55 c3 -26 2 -67 -4 -90 -18 -82 -32 -70 -39 31 -7
112 29 161 43 59z m-2487 -97 c5 -46 -24 -195 -39 -195 -11 0 -19 71 -12 119
3 25 3 43 -1 39 -4 -3 -11 -37 -15 -75 -6 -64 -7 -67 -20 -44 -25 45 -18 91
23 159 44 70 55 69 64 -3z m2227 20 c0 -22 -31 -33 -47 -17 -17 17 -1 44 24
40 15 -2 23 -10 23 -23z m-2018 -152 c-28 -53 -63 -76 -122 -81 -30 -2 -55 -2
-55 1 0 4 23 16 50 28 28 12 49 23 47 25 -2 3 -20 -3 -40 -11 -20 -8 -44 -15
-54 -15 -16 0 -15 2 4 21 23 24 176 81 181 69 2 -5 -3 -21 -11 -37z m2442
-110 c-7 -35 -22 -67 -45 -94 -31 -37 -34 -39 -34 -17 0 12 7 50 14 83 8 33
13 61 11 63 -4 4 -20 -53 -31 -108 -7 -33 -8 -33 -16 -10 -18 50 12 143 69
211 l28 33 7 -55 c4 -30 3 -77 -3 -106z m-2825 -24 c17 -20 26 -43 26 -64 0
-49 -15 -51 -29 -4 -7 23 -14 39 -17 37 -2 -3 1 -19 7 -36 6 -17 9 -39 7 -49
-3 -14 -8 -11 -21 14 -18 34 -24 133 -8 133 5 0 21 -14 35 -31z m2566 -9 c40
-40 52 -70 27 -70 -57 0 -127 47 -127 87 0 19 5 23 30 23 22 0 41 -11 70 -40z
m-2230 -79 c0 -32 -38 -51 -100 -50 l-55 0 39 15 c71 26 57 29 -29 7 -19 -5
-19 -4 -3 12 9 10 41 21 75 25 32 4 61 8 66 9 4 0 7 -8 7 -18z m-392 -44 c-2
-5 8 -15 22 -22 20 -12 21 -14 7 -15 -22 0 -77 30 -77 43 0 4 11 7 25 5 14 -2
24 -7 23 -11z m2621 4 c22 -14 3 -31 -34 -31 -35 0 -51 12 -40 30 8 12 55 13
74 1z m396 -94 c-11 -67 -31 -105 -67 -127 -18 -11 -36 -20 -40 -20 -17 0 -6
40 23 81 l30 44 -36 -38 c-30 -32 -36 -35 -30 -15 10 29 21 45 70 100 46 50
61 43 50 -25z m-2764 -54 c-19 -36 -92 -93 -119 -93 -6 0 -9 12 -7 27 4 42 55
77 118 82 14 1 16 -3 8 -16z m2525 -146 c31 -37 56 -92 52 -114 -2 -10 -16 4
-36 36 -44 68 -52 65 -12 -4 17 -30 30 -60 28 -66 -2 -5 -22 6 -45 26 -44 37
-73 104 -73 167 l0 29 29 -20 c16 -12 42 -36 57 -54z m-2768 -55 c22 -29 58
-130 50 -137 -3 -3 -17 17 -32 45 -38 70 -43 63 -6 -10 31 -62 28 -72 -16 -44
-37 25 -54 66 -54 134 0 57 1 60 19 50 11 -5 28 -22 39 -38z m2979 -18 c-7
-67 -41 -129 -79 -145 -16 -6 -31 -9 -34 -6 -10 10 7 46 43 95 31 40 32 43 8
22 -15 -14 -36 -38 -46 -55 -23 -36 -25 -18 -4 33 18 43 94 124 108 115 5 -3
7 -29 4 -59z m-2807 36 c0 -19 -20 -27 -33 -13 -8 7 11 33 24 33 5 0 9 -9 9
-20z m70 -314 c-6 -27 -24 -55 -59 -89 l-49 -50 -7 35 c-8 44 9 85 67 152 l42
49 8 -28 c4 -16 3 -47 -2 -69z m2478 72 c14 -14 16 -94 2 -103 -11 -7 -50 52
-50 76 0 15 18 39 30 39 3 0 11 -5 18 -12z m-2694 -69 c14 -11 31 -29 36 -40
9 -15 8 -18 -7 -12 -12 4 -9 -1 7 -14 33 -28 17 -42 -18 -16 -24 17 -60 74
-62 96 0 13 17 8 44 -14z m2901 -29 c12 -20 -55 -113 -71 -97 -10 10 4 51 27
80 22 29 34 33 44 17z m-2890 -116 c29 -19 33 -34 9 -34 -21 0 -94 41 -94 53
0 13 55 1 85 -19z m237 -50 c-6 -11 -22 -30 -36 -43 l-25 -24 9 33 c12 41 40
74 53 61 5 -5 5 -16 -1 -27z m2404 -37 c18 -33 15 -128 -5 -177 -8 -20 -10
-10 -10 52 -1 42 -5 79 -9 82 -5 3 -6 -8 -4 -25 2 -16 1 -50 -3 -76 -7 -47 -7
-47 -21 -23 -16 30 -18 105 -3 151 6 19 13 40 15 47 5 18 21 6 40 -31z m-2571
-61 c40 -17 73 -62 58 -77 -14 -14 -38 -1 -88 50 -43 45 -33 53 30 27z m2711
-23 c-10 -10 -19 5 -10 18 6 11 8 11 12 0 2 -7 1 -15 -2 -18z m-2518 -51 c2
-14 -2 -22 -12 -22 -19 0 -29 17 -22 36 8 22 30 12 34 -14z m2622 -22 c0 -23
-30 -33 -81 -28 l-34 3 35 23 c45 28 80 29 80 2z m-2510 -145 c0 -33 -28 -84
-30 -55 -1 10 -4 9 -10 -5 -13 -31 -12 41 1 90 10 37 12 38 25 20 8 -10 14
-33 14 -50z m-144 -16 c31 -29 24 -35 -18 -14 l-33 16 25 -20 c14 -11 31 -21
38 -21 6 0 12 -4 12 -9 0 -14 -59 5 -82 26 -11 10 -24 26 -30 37 -10 18 -7 19
27 13 21 -3 48 -16 61 -28z m2186 -40 c1 -20 -4 -44 -10 -55 -10 -17 -12 -15
-13 16 l-2 35 -6 -40 -7 -40 -7 31 c-6 22 -3 44 8 70 18 44 35 36 37 -17z
m-1957 -9 c19 -36 19 -77 0 -110 -14 -24 -14 -24 -16 25 l-2 50 -6 -42 c-9
-53 -18 -63 -26 -30 -6 23 19 137 30 137 2 0 11 -13 20 -30z m2265 10 c-6 -10
-25 -31 -44 -45 -26 -20 -44 -25 -90 -25 -67 0 -66 12 5 35 28 9 48 19 46 22
-3 2 -30 -5 -62 -15 l-57 -20 21 21 c19 19 61 29 184 46 4 1 3 -8 -3 -19z
m-2510 -90 c0 -13 -7 -20 -20 -20 -19 0 -27 20 -13 33 13 14 33 6 33 -13z
m1995 -176 c-15 -40 -102 -134 -124 -134 -20 0 18 80 58 124 15 17 20 27 11
24 -14 -4 -73 -82 -83 -110 -10 -30 -16 2 -6 38 8 29 30 57 82 107 l72 67 3
-37 c2 -20 -4 -55 -13 -79z m-1507 48 c3 -16 -2 -22 -17 -22 -24 0 -35 15 -27
36 9 23 40 13 44 -14z m1772 -12 c0 -5 -4 -10 -10 -10 -5 0 -10 5 -10 10 0 6
5 10 10 10 6 0 10 -4 10 -10z m-1990 -25 c25 -14 25 -14 -15 -16 -33 -2 -35
-3 -10 -6 17 -2 41 -6 55 -9 24 -5 24 -6 6 -20 -29 -21 -110 -17 -167 7 -54
24 -54 32 1 47 51 15 101 13 130 -3z m368 -43 c39 -36 42 -43 42 -90 0 -29 -4
-52 -8 -52 -5 0 -16 25 -26 56 -10 31 -19 54 -21 52 -4 -4 14 -68 31 -113 6
-18 4 -17 -20 4 -38 35 -76 181 -48 181 5 0 27 -17 50 -38z m170 -54 c14 -14
16 -78 2 -78 -11 0 -40 53 -40 75 0 18 21 20 38 3z m955 -4 c10 -10 -12 -44
-28 -44 -15 0 -24 19 -17 38 4 13 34 17 45 6z m-662 -46 c41 -31 69 -79 69
-119 l0 -34 -35 55 c-41 65 -46 61 -9 -6 14 -25 23 -48 20 -51 -11 -11 -53 26
-70 60 -15 33 -23 117 -11 117 3 0 19 -10 36 -22z m349 -8 c0 -10 -11 -32 -25
-47 l-24 -28 -1 30 c0 34 26 79 41 70 5 -4 9 -15 9 -25z m678 8 c-3 -20 -10
-23 -61 -26 -43 -2 -57 0 -52 8 10 16 65 39 93 40 19 0 23 -5 20 -22z m-518
-12 c0 -17 -64 -72 -91 -79 -30 -8 -23 23 13 60 33 34 78 45 78 19z m-1135
-41 c0 -31 -49 -28 -53 3 -3 20 0 23 25 20 20 -2 28 -8 28 -23z m455 7 c0 -13
-12 -22 -22 -16 -10 6 -1 24 13 24 5 0 9 -4 9 -8z m326 -47 c7 -30 -18 -65
-48 -65 -15 0 -18 5 -12 23 9 30 34 67 45 67 5 0 11 -11 15 -25z m708 14 c27
-12 40 -35 30 -51 -7 -10 -40 16 -55 44 -11 21 -8 22 25 7z m-1217 -86 c6 -16
-49 -43 -87 -43 -27 0 -29 2 -18 19 23 37 96 53 105 24z m944 3 c41 -7 92 -42
84 -57 -4 -5 -21 -9 -40 -9 -39 0 -200 48 -191 57 8 8 78 21 96 18 8 -2 31 -6
51 -9z m-426 -68 c-4 -13 -15 -30 -25 -39 -19 -17 -98 -34 -108 -24 -9 9 50
62 78 70 l25 8 -20 -24 c-15 -19 -13 -18 10 4 36 33 49 34 40 5z m-385 -5 c-1
-14 -24 -39 -52 -57 -33 -21 -53 -14 -38 14 16 30 91 65 90 43z m535 -3 c3 -5
-1 -10 -9 -10 -9 0 -16 5 -16 10 0 6 4 10 9 10 6 0 13 -4 16 -10z m-463 -50
c-5 -34 -20 -49 -32 -30 -9 14 -3 37 13 57 15 20 24 7 19 -27z"/>
<path d="M1581 2379 c-13 -11 -22 -22 -19 -24 2 -3 15 6 28 20 28 30 24 32 -9
4z"/>
<path d="M1600 1900 c-6 -11 -8 -20 -6 -20 3 0 10 9 16 20 6 11 8 20 6 20 -3
0 -10 -9 -16 -20z"/>
<path d="M1540 1607 c0 -2 15 -14 33 -27 20 -15 27 -17 18 -6 -13 16 -51 41
-51 33z"/>
<path d="M2400 765 c-14 -8 -20 -14 -14 -15 5 0 19 7 30 15 24 18 16 19 -16 0z"/>
<path d="M2830 2797 c-38 -18 -48 -30 -64 -72 -41 -105 -15 -377 59 -615 41
-130 61 -255 47 -293 -7 -19 -12 -47 -12 -64 0 -17 -6 -36 -14 -42 -11 -9 -27
5 -82 71 -37 46 -87 106 -111 134 l-43 51 25 33 c29 39 33 96 11 138 -21 39
-337 348 -364 357 -46 14 -92 -4 -148 -59 -84 -81 -83 -88 75 -329 137 -208
165 -237 231 -237 19 0 49 9 66 19 l30 19 121 -142 120 -141 -39 -49 c-53 -67
-56 -86 -23 -143 l28 -46 -24 -19 c-54 -42 -69 -61 -69 -89 0 -20 8 -34 26
-46 24 -15 28 -15 52 0 15 8 38 37 50 62 22 42 26 46 50 40 30 -7 40 -18 48
-55 10 -44 13 -50 29 -57 24 -9 33 6 48 76 l12 64 50 -59 c27 -33 54 -62 60
-66 19 -14 55 -8 75 12 34 34 25 63 -44 148 l-64 79 299 374 c165 206 302 384
305 396 4 14 -3 39 -19 68 l-25 45 69 61 c60 54 69 67 69 96 0 26 -6 36 -25
45 -39 18 -70 -3 -104 -69 -51 -99 -49 -98 -108 -77 -43 15 -55 16 -75 5 -13
-7 -120 -134 -238 -282 -118 -149 -223 -280 -233 -292 -18 -22 -18 -21 -12 28
4 28 26 129 50 225 65 261 88 392 89 505 1 127 -15 166 -76 194 -56 25 -122
24 -178 -2z m74 -34 c-5 -21 -9 -192 -9 -380 0 -188 -1 -340 -2 -339 -4 4 -22
101 -45 246 -14 88 -22 184 -22 275 -1 124 2 145 21 188 16 35 27 47 44 47 19
0 21 -3 13 -37z m78 15 c17 -31 14 -217 -7 -368 -8 -63 -23 -178 -32 -255 -17
-138 -17 -139 -26 -85 -12 85 -4 669 10 703 15 33 38 35 55 5z m-161 -40 c-28
-80 -22 -316 13 -485 8 -37 17 -93 20 -123 l5 -55 -19 60 c-29 88 -70 296 -77
389 -6 92 8 175 38 225 24 40 36 34 20 -11z m226 -1 c38 -71 14 -306 -61 -592
-43 -165 -45 -127 -5 152 19 138 31 266 32 350 1 72 5 129 9 127 5 -3 16 -20
25 -37z m673 -220 c0 -19 -19 -40 -82 -91 -61 -49 -70 -51 -39 -8 10 15 26 45
35 67 21 51 42 68 67 54 11 -5 19 -15 19 -22z m-1397 -86 c193 -183 305 -300
311 -325 11 -45 -11 -91 -67 -139 -29 -24 -62 -49 -74 -55 -24 -13 -82 -16
-109 -5 -20 7 -269 381 -278 417 -8 34 14 78 57 110 71 54 101 54 160 -3z
m1196 -45 c43 -23 101 -92 101 -122 0 -19 -86 -133 -327 -435 l-328 -408 -5
192 -5 192 238 298 c217 270 241 297 268 297 17 0 42 -6 58 -14z m-810 -576
c98 -119 109 -136 96 -149 -9 -10 -18 -12 -23 -6 -86 98 -222 266 -222 273 0
10 19 22 31 19 3 -1 56 -63 118 -137z m220 -14 c8 -9 11 -85 9 -252 l-3 -239
-25 0 -25 0 -3 240 c-1 132 0 245 2 252 7 17 31 16 45 -1z m-69 -200 l0 -83
-53 21 -54 21 50 62 c28 35 52 63 54 63 2 0 3 -38 3 -84z m-32 -96 c31 -19 32
-22 32 -84 0 -60 -1 -64 -21 -59 -14 4 -18 11 -14 22 4 9 9 22 12 29 3 6 1 12
-5 12 -11 0 -67 -84 -76 -116 -15 -49 -76 -72 -84 -31 -3 12 20 40 67 84 39
36 71 73 71 81 0 12 -5 10 -24 -7 l-24 -22 -21 27 c-11 15 -21 40 -21 55 0 27
3 29 38 29 20 0 52 -9 70 -20z m308 -182 c13 -25 13 -29 -6 -48 -25 -25 -39
-19 -87 38 -69 82 -71 87 -43 117 l25 27 48 -54 c26 -29 55 -65 63 -80z m-216
-58 c0 -11 -4 -20 -10 -20 -5 0 -10 9 -10 20 0 11 5 20 10 20 6 0 10 -9 10
-20z"/>
<path d="M2146 2352 c-14 -23 4 -65 79 -178 88 -132 165 -219 201 -228 18 -5
39 1 71 19 55 33 52 42 -5 14 -24 -12 -49 -18 -61 -14 -44 14 -261 306 -271
365 -4 24 -8 31 -14 22z"/>
<path d="M1404 206 c-3 -7 -4 -40 -2 -72 3 -59 3 -59 35 -60 17 -1 38 3 45 7
8 6 2 9 -19 9 -28 0 -33 3 -33 25 0 20 5 25 25 25 14 0 25 5 25 10 0 6 -11 10
-25 10 -18 0 -25 5 -25 20 0 16 7 20 31 20 42 0 28 16 -16 18 -22 1 -38 -4
-41 -12z"/>
<path d="M1523 208 c-4 -7 -9 -39 -9 -70 -1 -43 2 -58 12 -58 8 0 14 10 14 23
0 17 8 25 33 32 25 8 33 16 35 37 3 22 -2 30 -23 38 -35 13 -52 13 -62 -2z
m62 -33 c0 -13 -8 -21 -22 -23 -19 -3 -23 1 -23 23 0 22 4 26 23 23 14 -2 22
-10 22 -23z"/>
<path d="M1648 209 c-29 -16 -21 -45 18 -68 42 -25 40 -46 -4 -46 -18 0 -32
-3 -32 -7 0 -13 38 -18 64 -9 38 15 34 47 -9 73 -41 23 -41 42 -2 46 15 2 25
8 22 13 -8 12 -35 11 -57 -2z"/>
<path d="M2018 209 c-30 -17 -22 -48 17 -66 45 -21 43 -48 -3 -48 -38 0 -42
-12 -8 -21 34 -8 66 12 66 41 0 19 -9 28 -36 40 -41 17 -41 38 -1 43 15 2 25
8 22 13 -8 12 -35 11 -57 -2z"/>
<path d="M2107 214 c-8 -8 32 -115 49 -133 11 -12 15 -11 22 10 5 13 17 41 26
63 9 21 16 45 16 53 0 26 -18 3 -36 -46 -10 -28 -21 -48 -24 -46 -4 3 -13 25
-20 50 -13 46 -22 59 -33 49z"/>
<path d="M2279 209 c-15 -6 -32 -22 -38 -38 -24 -57 26 -110 91 -96 24 6 28
11 28 41 0 30 -3 34 -25 34 -14 0 -25 -4 -25 -10 0 -5 7 -10 15 -10 8 0 15 -9
15 -20 0 -14 -7 -20 -21 -20 -39 0 -59 19 -59 55 0 38 20 55 65 55 15 0 24 4
20 10 -8 12 -31 12 -66 -1z"/>
<path d="M2657 213 c-11 -11 -8 -145 3 -138 6 3 10 17 10 31 0 18 5 24 23 24
50 0 67 63 21 80 -30 12 -48 13 -57 3z m58 -38 c0 -13 -8 -21 -22 -23 -19 -3
-23 1 -23 23 0 22 4 26 23 23 14 -2 22 -10 22 -23z"/>
<path d="M2770 143 c0 -83 16 -92 22 -13 l3 45 30 -47 c46 -73 55 -70 55 18 0
48 -4 73 -10 69 -5 -3 -10 -27 -10 -53 l0 -46 -36 52 c-20 29 -41 52 -45 52
-5 0 -9 -35 -9 -77z"/>
<path d="M2960 213 c-43 -16 -65 -73 -42 -110 12 -18 61 -34 88 -27 19 5 24
13 24 40 0 30 -3 34 -25 34 -14 0 -25 -4 -25 -10 0 -5 7 -10 15 -10 8 0 15 -9
15 -20 0 -25 -41 -28 -64 -4 -38 38 -5 94 55 94 26 0 30 3 19 10 -16 11 -37
12 -60 3z"/>
<path d="M3358 214 c-5 -4 -8 -32 -8 -62 0 -45 -3 -55 -20 -59 -22 -6 -27 -23
-7 -23 36 0 48 24 45 89 -2 34 -6 59 -10 55z"/>
<path d="M3412 212 c-9 -6 -12 -29 -10 -73 3 -63 20 -88 26 -38 2 19 11 28 35
35 33 9 45 36 29 61 -10 16 -63 26 -80 15z m63 -37 c0 -13 -8 -21 -22 -23 -19
-3 -23 1 -23 23 0 22 4 26 23 23 14 -2 22 -10 22 -23z"/>
<path d="M3527 213 c-11 -11 -8 -131 4 -138 6 -4 27 -3 47 1 l37 8 -35 5 c-26
5 -35 11 -35 26 0 14 8 21 28 23 34 4 36 22 2 22 -18 0 -25 5 -25 20 0 16 7
20 31 20 17 0 28 4 24 10 -7 11 -68 14 -78 3z"/>
<path d="M3670 207 c-81 -41 -33 -153 56 -131 19 5 24 13 24 40 0 30 -3 34
-25 34 -14 0 -25 -4 -25 -10 0 -5 7 -10 15 -10 8 0 15 -9 15 -20 0 -15 -7 -20
-24 -20 -31 0 -56 25 -56 55 0 34 26 55 68 55 28 0 33 3 22 10 -20 13 -40 12
-70 -3z"/>
<path d="M4048 214 c-5 -4 -8 -38 -8 -76 0 -65 1 -68 24 -68 41 0 83 20 95 46
15 34 14 48 -6 73 -18 21 -92 39 -105 25z m73 -24 c13 -7 19 -21 19 -45 0 -36
-20 -55 -59 -55 -19 0 -21 6 -21 55 0 49 2 55 21 55 11 0 29 -5 40 -10z"/>
<path d="M4180 215 c0 -5 9 -24 19 -41 18 -30 18 -31 0 -55 -29 -37 -23 -59 7
-24 l25 30 20 -28 c12 -15 25 -25 30 -22 5 4 -1 20 -13 36 -22 29 -22 31 -5
60 25 44 20 59 -7 25 l-24 -29 -26 29 c-14 16 -25 25 -26 19z"/>
<path d="M4323 213 c-9 -3 -13 -27 -13 -68 0 -67 16 -99 22 -43 2 28 8 34 33
39 l30 6 -30 4 c-22 3 -30 9 -30 24 0 15 8 21 33 23 18 2 30 8 27 13 -6 9 -51
11 -72 2z"/>
<path d="M1830 130 c0 -5 11 -10 24 -10 14 0 28 5 31 10 4 6 -7 10 -24 10 -17
0 -31 -4 -31 -10z"/>
<path d="M2470 130 c0 -5 14 -10 30 -10 17 0 30 5 30 10 0 6 -13 10 -30 10
-16 0 -30 -4 -30 -10z"/>
<path d="M3150 130 c0 -5 11 -10 25 -10 14 0 25 5 25 10 0 6 -11 10 -25 10
-14 0 -25 -4 -25 -10z"/>
<path d="M3870 130 c0 -5 11 -10 25 -10 14 0 25 5 25 10 0 6 -11 10 -25 10
-14 0 -25 -4 -25 -10z"/>
</g>
</svg>
